<?xml version="1.0" encoding="utf-8"?>
<!-- Generator: Adobe Illustrator 24.0.3, SVG Export Plug-In . SVG Version: 6.00 Build 0)  -->
<svg version="1.1" id="Layer_1" xmlns="http://www.w3.org/2000/svg" xmlns:xlink="http://www.w3.org/1999/xlink" x="0px" y="0px"
	 viewBox="0 0 171.93 173.97" style="enable-background:new 0 0 171.93 173.97;" xml:space="preserve">
<style type="text/css">
	.st0{fill:#FFFFFF;}
</style>
<path class="st0" d="M154.6,0H17.33C7.76,0,0,7.79,0,17.39v139.19c0,9.61,7.76,17.39,17.33,17.39H154.6
	c9.58,0,17.33-7.79,17.33-17.39V17.39C171.93,7.79,164.18,0,154.6,0z M55.17,137.65H32.04V63.23h23.13V137.65z M43.45,54.1
	c-7.3,0-12.02-5.18-12.02-11.57c0-6.54,4.87-11.57,12.33-11.57c7.46,0,12.02,5.02,12.17,11.57C55.93,48.93,51.21,54.1,43.45,54.1z
	 M139.63,137.65H116.5V96.41c0-9.59-3.35-16.13-11.72-16.13c-6.39,0-10.19,4.41-11.87,8.67c-0.61,1.52-0.76,3.65-0.76,5.78v42.91
	H69.01V86.97c0-9.28-0.3-17.04-0.61-23.74h20.09l1.07,10.35h0.46c3.04-4.87,10.5-12.02,22.98-12.02c15.22,0,26.63,10.2,26.63,32.11
	V137.65z"/>
</svg>
