<?xml version="1.0" encoding="utf-8"?>
<!-- Generator: Adobe Illustrator 24.0.0, SVG Export Plug-In . SVG Version: 6.00 Build 0)  -->
<svg version="1.1" id="Capa_1" xmlns="http://www.w3.org/2000/svg" xmlns:xlink="http://www.w3.org/1999/xlink" x="0px" y="0px"
	 viewBox="0 0 512 512" style="enable-background:new 0 0 512 512;" xml:space="preserve">
<style type="text/css">
	.st0{fill:#36384C;}
	.st1{fill:none;stroke:#E3BAB3;stroke-width:19;stroke-miterlimit:10;}
	.st2{fill:none;stroke:#E3BAB3;stroke-width:19;stroke-linecap:round;stroke-linejoin:round;stroke-miterlimit:10;}
</style>
<g>
	<g>
		<path class="st0" d="M309.4,5.6C291.9,1.9,274,0,256,0C187.6,0,123.3,26.7,75,75C26.6,123.4,0,187.7,0,256
			c0,57,19.2,112.6,54.1,157.4c-3.9,6.1-6,13.2-6,20.6c0,10.1,4,19.7,11.1,26.9C66.4,468,75.9,472,86.1,472s19.7-4,26.9-11.1
			c7.2-7.2,11.1-16.7,11.1-26.9s-4-19.7-11.1-26.9S96.2,396,86.1,396c-6,0-11.8,1.4-17,4c-31.7-41.1-49-91.9-49-144
			C20,125.9,125.9,20,256,20c16.6,0,33.1,1.7,49.2,5.1c5.4,1.1,10.7-2.3,11.9-7.7C318.2,12.1,314.8,6.8,309.4,5.6z M73.3,421.2
			c3.5-3.5,8.1-5.3,12.7-5.3s9.2,1.8,12.7,5.3c3.4,3.4,5.3,7.9,5.3,12.7s-1.9,9.3-5.3,12.7c-7,7-18.4,7-25.5,0
			c-3.4-3.4-5.3-7.9-5.3-12.7S69.9,424.7,73.3,421.2z"/>
	</g>
</g>
<g>
	<g>
		<path class="st0" d="M457.9,98.7c3.9-6.1,6-13.2,6-20.6c0-10.2-4-19.7-11.1-26.9c-7.2-7.2-16.7-11.1-26.9-11.1s-19.7,4-26.9,11.1
			s-11.1,16.7-11.1,26.9s4,19.7,11.1,26.9c7.2,7.2,16.7,11.1,26.9,11.1c6,0,11.8-1.4,17-4c31.7,41.1,49,91.9,49,144
			c0,130.1-105.9,236-236,236c-14,0-28-1.2-41.7-3.7c-5.4-1-10.6,2.7-11.6,8.1s2.7,10.6,8.1,11.6c14.8,2.6,30,4,45.2,4
			c68.4,0,132.7-26.6,181-75s75-112.6,75-181C512,199.1,492.8,143.5,457.9,98.7z M438.7,90.8c-3.4,3.4-7.9,5.3-12.7,5.3
			s-9.3-1.9-12.7-5.3c-7-7-7-18.4,0-25.5c3.4-3.4,7.9-5.3,12.7-5.3s9.3,1.9,12.7,5.3c3.4,3.4,5.3,7.9,5.3,12.7
			C443.9,82.9,442.1,87.4,438.7,90.8z"/>
	</g>
</g>
<g>
	<g>
		<path class="st0" d="M351.8,18.6l-0.2-0.1c-5.1-2.1-10.9,0.4-13,5.6s0.4,10.9,5.6,13h0.1c1.2,0.5,2.5,0.7,3.7,0.7
			c4,0,7.7-2.4,9.3-6.3C359.4,26.5,356.9,20.7,351.8,18.6z"/>
	</g>
</g>
<g>
	<g>
		<path class="st0" d="M168.1,475.1l-3.8,9.3L168.1,475.1c-5.2-2.1-11,0.4-13,5.5c-2.1,5.1,0.4,10.9,5.5,13l0.3,0.1
			c1.2,0.5,2.4,0.7,3.6,0.7c4,0,7.8-2.4,9.4-6.4C175.8,482.9,173.3,477.1,168.1,475.1z"/>
	</g>
</g>
<ellipse class="st1" cx="357.9" cy="266" rx="27.9" ry="27.7"/>
<line class="st1" x1="327.8" y1="253.2" x2="245" y2="223.5"/>
<ellipse class="st1" cx="112" cy="308.8" rx="27.9" ry="27.7"/>
<line class="st1" x1="132.3" y1="288.1" x2="194.5" y2="226"/>
<ellipse transform="matrix(0.7071 -0.7071 0.7071 0.7071 -89.2017 215.063)" class="st1" cx="215" cy="215.2" rx="27.9" ry="27.7"/>
<polyline class="st2" points="385.7,177.7 435.4,175.5 383.2,246.3 "/>
<line class="st2" x1="444" y1="222.9" x2="435.4" y2="175.5"/>
</svg>
