<?xml version="1.0" encoding="utf-8"?>
<!-- Generator: Adobe Illustrator 24.0.3, SVG Export Plug-In . SVG Version: 6.00 Build 0)  -->
<svg version="1.1" id="Capa_1" xmlns="http://www.w3.org/2000/svg" xmlns:xlink="http://www.w3.org/1999/xlink" x="0px" y="0px"
	 viewBox="0 0 512 512" style="enable-background:new 0 0 512 512;" xml:space="preserve">
<style type="text/css">
	.st0{fill:#629B5E;}
	.st1{fill:#36384C;}
</style>
<g>
	<g>
		<path class="st0" d="M363.6,262.3c-0.9-3-3.1-5.5-6.2-6.6c-0.6-0.2-5.5-2-13.2-3.1c32.7-34.8,21.9-75.5,19.4-83.4
			c-0.9-3-3.1-5.5-6.2-6.6c-1.4-0.5-25.9-9.1-53.8,0.6c1.6-6.5,2.5-13.6,2.5-21.4c0-49.9-37.8-71.8-45.3-75.7
			c-2.8-1.5-6.1-1.6-9-0.3c-1.9,0.9-45.9,22-45.9,76c0,7.8,0.9,14.9,2.5,21.4c-27.9-9.8-52.5-1.1-53.9-0.6c-3,1.1-5.3,3.6-6.2,6.6
			c-2.6,7.9-13.4,48.6,19.4,83.4c-7.7,1.1-12.6,2.9-13.2,3.1c-3,1.1-5.3,3.6-6.2,6.6c-2.6,8.1-13.8,50.3,21.4,85.6
			c20.4,20.4,43.1,25.3,60,25.3c6.3,0,11.8-0.7,16.1-1.5v65.4c0,5.5,4.5,10,10,10c5.5,0,10-4.5,10-10v-65.5
			c4.3,0.8,9.9,1.5,16.2,1.5c17,0,39.6-4.9,60-25.3C377.5,312.6,366.2,270.4,363.6,262.3z M245.9,340.5c-0.2,4.5-0.9,8.4-1.5,11.1
			c-10.7,2.4-37.4,5.2-60.5-17.9c-22.7-22.7-20.3-49-17.8-60.5c6.7-1.5,19.8-3.1,34.4,1.6c1,0.4,1.9,0.7,2.9,1
			c7.7,2.9,15.7,7.7,23.2,15.2c14.4,14.4,18.7,30.3,19.4,42.7V340.5z M245.9,247.4c-0.2,4.5-0.9,8.4-1.5,11.1
			c-6.6,1.5-19.4,3.1-33.7-1.3c-1.4-0.6-2.9-1.1-4.3-1.5c-7.5-2.9-15.2-7.7-22.5-15c-22.7-22.7-20.3-49-17.8-60.5
			c10.7-2.3,37.5-5.1,60.5,17.9c0.1,0.1,0.3,0.3,0.4,0.4c0.9,1,1.8,1.9,2.6,2.8c12,13.5,15.7,27.9,16.3,39.5L245.9,247.4
			L245.9,247.4z M256.1,197.2c-3.1-2-7.6-5.3-12.2-10.1c-0.5-0.5-0.9-1-1.4-1.5c-8.4-9.3-16.5-23.5-16.5-43.8
			c0-32.6,20.9-49.5,30.1-55.4c9.9,6.3,30.2,23.2,30.2,55.4c0,19.1-7.2,32.8-15,42.1c-1.6,1.6-3.1,3.3-4.6,4.9
			C262.7,192.7,258.8,195.5,256.1,197.2z M266,244.2c0-11.7,3-27.3,15.5-41.9c1.5-1.5,3-3,4.4-4.7c22.9-22.6,49.4-19.8,60-17.5
			c2.5,11.5,4.9,37.8-17.8,60.5c-7.3,7.3-15,12.1-22.5,15c-1.5,0.5-2.9,1-4.4,1.5c-14.3,4.4-27,2.8-33.6,1.3
			c-0.7-3.3-1.5-8.2-1.6-14.1C266,244.3,266,244.3,266,244.2z M328,333.7c-23.1,23.1-49.8,20.3-60.5,17.9
			c-2.3-10.6-5.1-37.5,17.9-60.5c7.4-7.4,15.1-12.1,22.6-15c1.4-0.5,2.9-1,4.3-1.5c14.2-4.4,27-2.8,33.6-1.4
			C348.4,284.6,350.8,311,328,333.7z"/>
	</g>
</g>
<g>
	<g>
		<path class="st1" d="M309.4,5.6C291.9,1.9,274,0,256,0C187.6,0,123.3,26.6,75,75C26.6,123.3,0,187.6,0,256
			c0,57,19.2,112.6,54.1,157.4c-3.9,6.1-6,13.2-6,20.6c0,10.1,4,19.7,11.1,26.9c7.2,7.2,16.7,11.1,26.9,11.1s19.7-4,26.9-11.1
			c7.2-7.2,11.1-16.7,11.1-26.9s-4-19.7-11.1-26.9s-16.7-11.1-26.9-11.1c-6,0-11.8,1.4-17,4c-31.7-41.1-49-91.9-49-144
			C20,125.9,125.9,20,256,20c16.6,0,33.1,1.7,49.2,5.1c5.4,1.1,10.7-2.3,11.9-7.7C318.2,12,314.8,6.7,309.4,5.6z M73.3,421.2
			c3.5-3.5,8.1-5.3,12.7-5.3s9.2,1.8,12.7,5.3c3.4,3.4,5.3,7.9,5.3,12.7s-1.9,9.3-5.3,12.7c-7,7-18.4,7-25.5,0
			c-3.4-3.4-5.3-7.9-5.3-12.7S69.9,424.6,73.3,421.2z"/>
	</g>
</g>
<g>
	<g>
		<path class="st1" d="M457.9,98.6c3.9-6.1,6-13.2,6-20.6c0-10.2-4-19.7-11.1-26.9c-7.2-7.2-16.7-11.1-26.9-11.1s-19.7,4-26.9,11.1
			s-11.1,16.7-11.1,26.9s4,19.7,11.1,26.9c7.2,7.2,16.7,11.1,26.9,11.1c6,0,11.8-1.4,17-4c31.7,41.1,49,91.9,49,144
			c0,130.1-105.9,236-236,236c-14,0-28-1.2-41.7-3.7c-5.4-1-10.6,2.7-11.6,8.1c-1,5.4,2.7,10.6,8.1,11.6c14.8,2.6,30,4,45.2,4
			c68.4,0,132.7-26.6,181-75s75-112.6,75-181C512,199,492.8,143.4,457.9,98.6z M438.7,90.8c-3.4,3.4-7.9,5.3-12.7,5.3
			s-9.3-1.9-12.7-5.3c-7-7-7-18.4,0-25.5c3.4-3.4,7.9-5.3,12.7-5.3s9.3,1.9,12.7,5.3c3.4,3.4,5.3,7.9,5.3,12.7
			C443.9,82.9,442.1,87.4,438.7,90.8z"/>
	</g>
</g>
<g>
	<g>
		<path class="st1" d="M168.1,475.1l-3.8,9.3L168.1,475.1c-5.2-2.1-11,0.4-13,5.5c-2.1,5.1,0.4,10.9,5.5,13l0.3,0.1
			c1.2,0.5,2.4,0.7,3.6,0.7c4,0,7.8-2.4,9.4-6.4C175.8,482.8,173.3,477.1,168.1,475.1z"/>
	</g>
</g>
<g>
	<g>
		<path class="st1" d="M351.8,18.5l-0.2-0.1c-5.1-2.1-10.9,0.4-13,5.6s0.4,10.9,5.6,13l0.1,0c1.2,0.5,2.5,0.7,3.7,0.7
			c4,0,7.7-2.4,9.3-6.3C359.4,26.4,356.9,20.6,351.8,18.5z"/>
	</g>
</g>
</svg>
