<?xml version="1.0" encoding="utf-8"?>
<!-- Generator: Adobe Illustrator 24.0.3, SVG Export Plug-In . SVG Version: 6.00 Build 0)  -->
<svg version="1.1" id="Capa_1" xmlns="http://www.w3.org/2000/svg" xmlns:xlink="http://www.w3.org/1999/xlink" x="0px" y="0px"
	 viewBox="0 0 512 512" style="enable-background:new 0 0 512 512;" xml:space="preserve">
<style type="text/css">
	.st0{fill:#629B5E;}
	.st1{fill:#36384C;}
</style>
<path class="st0" d="M372,383.6c-2.1-10.1-5.5-26.9-11.4-57.3l0,0c-4.2-21.1-23.2-25.8-25.6-26.3c-0.2-0.1-1.4-0.3-10.5-2.6
	l-34.8-8.6h33.4c8.5,0,15.4-6.9,15.4-15.4v-71.6c0.6-2.8,0.6-5.7,0-8.4v-26c0-3.4-2.8-6.2-6.2-6.2s-6.2,2.8-6.2,6.2v11.4
	c-1.9-0.9-3.9-1.6-6-2c-1.5-5.2-6-9.1-11.4-9.8c-5-0.7-8.8-3.6-11.3-8.7c-1.5-3-4.4-5-7.7-5.3c-3.4-0.3-6.6,1.1-8.6,3.9
	c-7.9,10.7-30.4,35.7-69.3,35.7c-2.5,0-4.2-0.1-5.2-0.1l-0.5,0c-3.9-0.2-7.6,1.1-10.4,3.8c-2.8,2.7-4.4,6.3-4.4,10.2v11
	c0,17.9,7.4,35.3,20.4,47.6c4,3.8,8.5,7.2,13.4,9.9v1.8h-36.1c-1.7,0-3.1-1.4-3.1-3.1V166c0-16.5,6.4-32,18.1-43.8
	c11.6-11.8,27-18.3,43.2-18.3l0.3,0c12.1,0.1,26,3.5,35.5,8.7c4.6,2.5,8,2,11.6,1.4c1.6-0.3,3.2-0.5,5.1-0.5
	c14,0,25.3,14.5,26.6,27.5c0,0.2,0,0.9,0,4c0,1.4,0.4,2.5,1,3.4l-1.3,0l2,0.9c1.2,1.1,2.7,1.7,3.8,1.8c0.3,0,0.6,0,0.9,0
	c1.5-0.1,3-0.7,4.1-1.8c1.2-1.2,1.8-2.7,1.8-4.4v-0.3c0-2,0-4.1-0.1-4.8c-1.9-18.7-18-38.7-38.9-38.7c-3.7,0-5.9,0.4-7.5,0.7
	c-1.7,0.3-2.3,0.4-3.2-0.1c-11.1-6.1-27.4-10.2-41.3-10.2c-0.2,0-0.3,0-0.5,0c-19.2,0-37.4,7.6-51.3,21.4
	c-14.3,14.2-22.1,33-22.1,53v107.3c0,8.5,6.9,15.4,15.4,15.4h33.2l-45.1,11.2l-3.8,1.1c-0.1,0-0.3,0.1-0.4,0.1
	c-6.7,2.5-18.3,9-21.5,25.1l-10.8,54c-3.2,16.2-3.2,16.2-3.2,16.2c-1,7,0.5,13.2,4.2,17.4c3.7,4.2,9.4,6.5,16.5,6.5h51.6
	c3.4,0,6.2-2.8,6.2-6.2s-2.8-6.2-6.2-6.2h-16.6v-43.7c0-3.4-2.8-6.2-6.2-6.2c-3.4,0-6.1,2.8-6.1,6.2v43.7h-22.7
	c-6.3,0-8.7-2-8.7-7.3l0-0.1c0-1.6,0-1.6,2.5-14.2c2-10,5.4-26.8,11.5-57.7c2-10.1,9.3-14.3,13.6-15.9l3.2-0.9l27.3-6.8
	c11.8,13.9,18.8,22.2,23.1,27.2c6.6,7.8,6.6,7.8,7.6,8.8l0.1,0.1c5.3,5.2,11.9,7.8,18.7,7.5c6.9-0.3,13.5-3.8,18.5-9.7l28.9-34
	l27.1,6.7c0.1,0.1,0.3,0.1,0.6,0.2c11.3,3.2,15.1,10.8,16.3,16.7c6,30.6,9.4,47.4,11.4,57.4c2.6,12.9,2.6,12.9,2.6,14.6
	c0,5.4-2.4,7.3-8.7,7.3h-22.6v-43.7c0-3.4-2.8-6.2-6.2-6.2c-3.4,0-6.1,2.8-6.1,6.2v43.7h-86.9c-3.4,0-6.2,2.8-6.2,6.2
	s2.8,6.2,6.2,6.2h121.8c12.8,0,20.9-7.5,21-19.6C374.9,397.5,374.8,397,372,383.6z M203.7,209.1c-0.1-3.3,0-3.6,0.5-4.1
	c0.2-0.2,0.7-0.5,1.2-0.5c2.1,0.1,4.1,0.2,6.1,0.2c30.1,0,57.7-13.4,76.9-37.4c5.5,8.4,13.1,11.1,18.6,11.8c0.7,0.1,1.3,0.7,1.3,1.5
	V218c0,21.2-12.1,39.6-31.6,48c-19.6,8.4-41.3,4.5-56.6-10c-10.5-10.1-16.6-24.2-16.6-38.7C203.8,213.5,203.7,210.9,203.7,209.1z
	 M237.5,292.8l0-12.9c12.2,3.7,24.9,3.7,37.1,0.1c0,4.7,0,7.7,0,9.8c0,3.7,0,4,0.3,5.1c0.7,2,2.3,3.4,4.3,3.9l12,3l-6.4,7.5h-57.6
	l-6.4-7.5l11.9-3C235.5,298.1,237.5,295.7,237.5,292.8z M320.8,218.3c1.9-0.4,3.7-1.1,5.4-1.9v57c0,1.7-1.4,3.1-3.1,3.1h-36.2V275
	C307.7,263.7,320.7,242.1,320.8,218.3z M326.2,200c-0.9,2.2-2.8,4.1-5.4,5.3v-15.6c2.6,1.2,4.6,3.1,5.4,5.3V200z M274.4,321.6
	l-8.1,9.5c-3,3.5-6.5,5.4-10.2,5.4c0,0,0,0,0,0c-3.7,0-7.3-1.9-10.3-5.4l-8-9.5H274.4z"/>
<g>
	<g>
		<path class="st1" d="M309.4,5.6C291.9,1.9,274,0,256,0C187.6,0,123.3,26.7,75,75C26.6,123.4,0,187.7,0,256
			c0,57,19.2,112.6,54.1,157.4c-3.9,6.1-6,13.2-6,20.6c0,10.1,4,19.7,11.1,26.9C66.4,468,75.9,472,86.1,472s19.7-4,26.9-11.1
			c7.2-7.2,11.1-16.7,11.1-26.9s-4-19.7-11.1-26.9S96.2,396,86.1,396c-6,0-11.8,1.4-17,4c-31.7-41.1-49-91.9-49-144
			C20,125.9,125.9,20,256,20c16.6,0,33.1,1.7,49.2,5.1c5.4,1.1,10.7-2.3,11.9-7.7C318.2,12.1,314.8,6.8,309.4,5.6z M73.3,421.3
			c3.5-3.5,8.1-5.3,12.7-5.3s9.2,1.8,12.7,5.3c3.4,3.4,5.3,7.9,5.3,12.7s-1.9,9.3-5.3,12.7c-7,7-18.4,7-25.5,0
			c-3.4-3.4-5.3-7.9-5.3-12.7S69.9,424.7,73.3,421.3z"/>
	</g>
</g>
<g>
	<g>
		<path class="st1" d="M457.9,98.7c3.9-6.1,6-13.2,6-20.6c0-10.2-4-19.7-11.1-26.9c-7.2-7.2-16.7-11.1-26.9-11.1s-19.7,4-26.9,11.1
			s-11.1,16.7-11.1,26.9s4,19.7,11.1,26.9c7.2,7.2,16.7,11.1,26.9,11.1c6,0,11.8-1.4,17-4c31.7,41.1,49,91.9,49,144
			c0,130.1-105.9,236-236,236c-14,0-28-1.2-41.7-3.7c-5.4-1-10.6,2.7-11.6,8.1c-1,5.4,2.7,10.6,8.1,11.6c14.8,2.6,30,4,45.2,4
			c68.4,0,132.7-26.6,181-75s75-112.6,75-181C512,199.1,492.8,143.5,457.9,98.7z M438.7,90.8c-3.4,3.4-7.9,5.3-12.7,5.3
			s-9.3-1.9-12.7-5.3c-7-7-7-18.4,0-25.5c3.4-3.4,7.9-5.3,12.7-5.3s9.3,1.9,12.7,5.3c3.4,3.4,5.3,7.9,5.3,12.7
			C443.9,82.9,442.1,87.4,438.7,90.8z"/>
	</g>
</g>
<g>
	<g>
		<path class="st1" d="M168.1,475.1l-3.8,9.3L168.1,475.1c-5.2-2.1-11,0.4-13,5.5c-2.1,5.1,0.4,10.9,5.5,13l0.3,0.1
			c1.2,0.5,2.4,0.7,3.6,0.7c4,0,7.8-2.4,9.4-6.4C175.8,482.9,173.3,477.1,168.1,475.1z"/>
	</g>
</g>
<g>
	<g>
		<path class="st1" d="M351.8,18.6l-0.2-0.1c-5.1-2.1-10.9,0.4-13,5.6s0.4,10.9,5.6,13l0.1,0c1.2,0.5,2.5,0.7,3.7,0.7
			c4,0,7.7-2.4,9.3-6.3C359.4,26.5,356.9,20.7,351.8,18.6z"/>
	</g>
</g>
</svg>
