<?xml version="1.0" encoding="utf-8"?>
<!-- Generator: Adobe Illustrator 24.0.0, SVG Export Plug-In . SVG Version: 6.00 Build 0)  -->
<svg version="1.1" id="Layer_1" xmlns="http://www.w3.org/2000/svg" xmlns:xlink="http://www.w3.org/1999/xlink" x="0px" y="0px"
	 viewBox="0 0 512 512" style="enable-background:new 0 0 512 512;" xml:space="preserve">
<style type="text/css">
	.st0{fill:#36384C;}
	.st1{fill:#619B5E;stroke:#629B5E;stroke-width:3;stroke-miterlimit:10;}
</style>
<path class="st0" d="M90.1,395.9c-7.2,0-14.1,1.8-20.2,5.1C37.7,359.8,20,308.5,20,256C20,125.9,125.9,20,256,20
	c15.8,0,31.6,1.6,47,4.7c5.4,1.1,10.7-2.4,11.8-7.8S312.4,6.2,307,5.1C290.3,1.7,273.1,0,256,0C187.6,0,123.3,26.6,75,75
	S0,187.6,0,256c0,57.5,19.5,113.7,55.1,158.7c-4.6,6.8-7,14.9-7,23.3c0,11.2,4.4,21.8,12.3,29.7c7.9,7.9,18.5,12.3,29.7,12.3
	s21.8-4.4,29.7-12.3s12.3-18.5,12.3-29.7s-4.4-21.8-12.3-29.7C111.8,400.3,101.3,395.9,90.1,395.9z M105.6,453.5
	c-4.2,4.2-9.7,6.4-15.6,6.4s-11.4-2.3-15.6-6.4s-6.4-9.7-6.4-15.6s2.3-11.4,6.4-15.6c4.2-4.2,9.7-6.4,15.6-6.4s11.4,2.3,15.6,6.4
	c4.2,4.2,6.4,9.7,6.4,15.6C112.1,443.8,109.8,449.3,105.6,453.5z"/>
<path class="st0" d="M456.9,97.3c10.9-16.3,9.1-38.6-5.3-53c-7.9-7.9-18.5-12.3-29.7-12.3s-21.8,4.4-29.7,12.3
	c-7.9,7.9-12.3,18.5-12.3,29.7s4.4,21.8,12.3,29.7s18.5,12.3,29.7,12.3c7.2,0,14.1-1.8,20.2-5.1C474.3,152.2,492,203.5,492,256
	c0,130.1-105.9,236-236,236c-15.7,0-31.3-1.5-46.6-4.6c-5.4-1.1-10.7,2.4-11.8,7.8s2.4,10.7,7.8,11.8c16.5,3.3,33.5,5,50.5,5
	c68.4,0,132.7-26.6,181-75s75-112.6,75-181C512,198.5,492.5,142.3,456.9,97.3z M406.4,89.6c-4.2-4.2-6.4-9.7-6.4-15.6
	s2.3-11.4,6.4-15.6c4.2-4.2,9.7-6.4,15.6-6.4s11.4,2.3,15.6,6.4c8.6,8.6,8.6,22.5,0,31.1c-4.2,4.2-9.7,6.4-15.6,6.4
	C416.1,96.1,410.5,93.8,406.4,89.6z"/>
<path class="st0" d="M348.1,37.8c2.6,0,5.2-1.1,7.1-2.9c1.9-1.9,2.9-4.4,2.9-7.1c0-2.6-1.1-5.2-2.9-7.1c-1.9-1.9-4.4-2.9-7.1-2.9
	c-2.6,0-5.2,1.1-7.1,2.9c-1.9,1.9-2.9,4.4-2.9,7.1c0,2.6,1.1,5.2,2.9,7.1C342.9,36.8,345.4,37.8,348.1,37.8z"/>
<path class="st0" d="M164.4,474.4c-2.6,0-5.2,1.1-7.1,2.9s-2.9,4.4-2.9,7.1c0,2.6,1.1,5.2,2.9,7.1s4.4,2.9,7.1,2.9s5.2-1.1,7.1-2.9
	s2.9-4.4,2.9-7.1s-1.1-5.2-2.9-7.1S167,474.4,164.4,474.4z"/>
<g id="surface1">
	<path class="st1" d="M117.5,184c-0.1,0.6-0.2,1.2-0.2,1.8v12.2c0,5,3.1,9.5,7.8,11.3v17.9c0,6,4.7,10.9,10.7,11.2v103.4
		c-6,0.3-10.7,5.2-10.7,11.2v17.9c-4.7,1.8-7.8,6.3-7.8,11.4V394c0,2.2,1.8,4,4,4h271.2c2.2,0,4-1.8,4-4v-11.9c0-5-3.1-9.6-7.8-11.4
		v-18c0-6-4.7-10.9-10.7-11.2V238.3c6-0.3,10.7-5.2,10.7-11.2v-17.9c4.7-1.8,7.8-6.2,7.8-11.3v-12.1c0-0.6-0.1-1.2-0.2-1.8
		c2,0.9,4.4,0,5.3-2c0.9-2,0-4.4-2-5.3l-140.8-74c-1.2-0.6-2.6-0.6-3.8,0l-140.8,73.9c-2,1-2.7,3.5-1.7,5.4
		C113.5,183.9,115.6,184.7,117.5,184z M133.2,216.1v-6.2h46.4v6.1L133.2,216.1z M236.4,238.3v103.4c-6,0.3-10.7,5.2-10.7,11.2V370
		h-38.2v-17.1c0-6-4.7-10.9-10.7-11.2V238.3c6-0.3,10.7-5.2,10.7-11.2v-17.1h38.1V227C225.7,233,230.4,238,236.4,238.3L236.4,238.3z
		 M233.8,216.1v-6.2h46.4v6.1L233.8,216.1z M337,238.3v103.4c-6,0.3-10.7,5.2-10.7,11.2V370h-38.2v-17.1c0-6-4.7-10.9-10.7-11.2
		V238.3c6-0.3,10.7-5.2,10.7-11.2v-17.1h38.1V227C326.3,233,331,238,337,238.3L337,238.3z M334.3,216.1v-6.2h46.4v6.1L334.3,216.1z
		 M380.7,363.9v6.1h-46.4v-6.1H380.7z M280.1,363.9v6.1h-46.4v-6.1H280.1z M240.4,230.3h-3.5c-1.8,0-3.2-1.4-3.2-3.2v-2.9h46.4v2.9
		c0,1.8-1.4,3.2-3.2,3.2H240.4z M269.4,238.4v103.3h-25V238.4H269.4z M240.4,349.7h36.5c1.8,0,3.2,1.4,3.2,3.2v2.9h-46.4v-2.9
		c0-1.8,1.4-3.2,3.2-3.2H240.4z M179.5,363.9v6.1h-46.4v-6.1H179.5z M133.1,227.2v-3h46.4v2.9c0,1.8-1.4,3.2-3.2,3.2h-40
		c-1.8,0-3.2-1.5-3.1-3.2V227.2z M168.8,238.4v103.2h-24.9V238.4L168.8,238.4z M133.1,353c0-1.8,1.4-3.2,3.2-3.2h39.9
		c1.8,0,3.2,1.4,3.2,3.2v2.9h-46.4V353z M388.5,382.3v7.9H125.3v-7.9c0-2.3,1.9-4.2,4.2-4.2h254.9
		C386.6,378.1,388.5,380,388.5,382.3L388.5,382.3z M380.7,353v2.9h-46.4V353c0-1.8,1.4-3.2,3.2-3.2h40
		C379.2,349.8,380.6,351.2,380.7,353L380.7,353z M345,341.7V238.4h25v103.3L345,341.7z M380.7,227.2c0,1.8-1.4,3.2-3.2,3.2h-39.9
		c-1.8,0-3.2-1.4-3.2-3.2v-3h46.4L380.7,227.2z M256.9,110.8l119.7,62.9H137.2L256.9,110.8z M125.3,185.8c0-2.2,1.8-4,4-4h255.1
		c2.2,0,4,1.8,4,4V198c0,2.2-1.8,4-4,4H129.3c-2.2,0-4-1.8-4-4V185.8z"/>
</g>
</svg>
